<?xml version="1.0" encoding="UTF-8"?>
<svg width="312px" height="312px" viewBox="0 0 312 312" version="1.1" xmlns="http://www.w3.org/2000/svg" xmlns:xlink="http://www.w3.org/1999/xlink">
    <!-- Generator: Sketch 59 (86127) - https://sketch.com -->
    <title>Artboard</title>
    <desc>Created with Sketch.</desc>
    <g id="Artboard" stroke="none" stroke-width="1" fill="none" fill-rule="evenodd">
        <g id="twitter" transform="translate(0.000000, 29.000000)" fill="#000000" fill-rule="nonzero">
            <path d="M304,29.4 C299.1,31.6 294.1,33.4 289,34.9 C295.1,28.1 299.7,20 302.5,11.2 C303.1,9.2 302.5,7.1 300.9,5.8 C299.3,4.5 297,4.4 295.2,5.4 C284.3,11.8 272.6,16.5 260.3,19.2 C247.9,7.1 231.1,0.2 213.7,0.2 C177,0.2 147.2,30.1 147.2,66.7 C147.2,69.6 147.4,72.5 147.7,75.3 C102.2,71.2 59.8,48.9 30.8,13.2 C29.8,11.9 28.2,11.2 26.5,11.4 C24.9,11.5 23.4,12.5 22.6,13.9 C16.7,24 13.6,35.6 13.6,47.4 C13.6,63.4 19.3,78.6 29.4,90.5 C26.3,89.4 23.3,88.1 20.5,86.5 C19,85.6 17.1,85.7 15.6,86.5 C14.1,87.4 13.1,89 13.1,90.7 C13.1,91 13.1,91.3 13.1,91.6 C13.1,115.5 26,137.1 45.7,148.8 C44,148.6 42.3,148.4 40.6,148.1 C38.9,147.8 37.1,148.4 35.9,149.7 C34.7,151 34.3,152.9 34.9,154.5 C42.2,177.3 61,194 83.6,199.1 C64.8,210.9 43.3,217.1 20.7,217.1 C16,217.1 11.2,216.8 6.6,216.3 C4.3,216 2.1,217.4 1.3,219.6 C0.5,221.8 1.3,224.2 3.3,225.5 C32.3,244.1 65.9,253.9 100.3,253.9 C168.1,253.9 210.4,222 234.1,195.1 C263.6,161.7 280.5,117.4 280.5,73.7 C280.5,71.9 280.5,70 280.4,68.2 C292,59.4 302,48.8 310.2,36.7 C311.4,34.9 311.3,32.4 309.9,30.7 C308.4,29 306,28.5 304,29.4 Z" id="Path"></path>
        </g>
    </g>
</svg>