<?xml version="1.0" encoding="UTF-8"?>
<svg width="312px" height="312px" viewBox="0 0 312 312" version="1.1" xmlns="http://www.w3.org/2000/svg" xmlns:xlink="http://www.w3.org/1999/xlink">
    <!-- Generator: Sketch 59 (86127) - https://sketch.com -->
    <title>Artboard</title>
    <desc>Created with Sketch.</desc>
    <g id="Artboard" stroke="none" stroke-width="1" fill="none" fill-rule="evenodd">
        <g id="linkedin" transform="translate(16.000000, 15.000000)" fill="#000000" fill-rule="nonzero">
            <path d="M65.2129032,90.0516129 L8.94193548,90.0516129 C6.41290323,90.0516129 4.42580645,92.0387097 4.42580645,94.5677419 L4.42580645,275.122581 C4.42580645,277.651613 6.41290323,279.63871 8.94193548,279.63871 L65.2129032,279.63871 C67.7419355,279.63871 69.7290323,277.651613 69.7290323,275.122581 L69.7290323,94.5677419 C69.7290323,92.1290323 67.6516129,90.0516129 65.2129032,90.0516129 Z" id="Path"></path>
            <path d="M37.1225806,0.270967742 C16.6193548,0.270967742 0,16.8903226 0,37.3935484 C0,57.8064516 16.6193548,74.4258065 37.1225806,74.4258065 C57.5354839,74.4258065 74.1548387,57.8064516 74.1548387,37.3935484 C74.1548387,16.8903226 57.5354839,0.270967742 37.1225806,0.270967742 Z" id="Path"></path>
            <path d="M208.193548,85.6258065 C185.612903,85.6258065 168.903226,95.2903226 158.787097,106.4 L158.787097,94.5677419 C158.787097,92.0387097 156.8,90.0516129 154.270968,90.0516129 L100.43871,90.0516129 C97.9096774,90.0516129 95.9225806,92.0387097 95.9225806,94.5677419 L95.9225806,275.122581 C95.9225806,277.651613 97.9096774,279.63871 100.43871,279.63871 L156.529032,279.63871 C159.058065,279.63871 161.045161,277.651613 161.045161,275.122581 L161.045161,185.793548 C161.045161,155.716129 169.264516,143.974194 190.219355,143.974194 C213.070968,143.974194 214.877419,162.76129 214.877419,187.329032 L214.877419,275.122581 C214.877419,277.651613 216.864516,279.63871 219.393548,279.63871 L275.483871,279.63871 C278.012903,279.63871 280,277.651613 280,275.122581 L280,176.129032 C280,131.329032 271.419355,85.6258065 208.193548,85.6258065 Z" id="Path"></path>
        </g>
    </g>
</svg>